# 3ds Max Wavefront OBJ Exporter v0.99 - (c)2007 guruware
# File Created: 11.11.2022 14:38:27

mtllib simon_door.mtl

#
# object Box007
#

v  -26.7404 334.8522 249.5818
v  -19.6847 -0.9792 273.9568
v  -3.2536 -0.9792 273.9568
v  -3.2536 334.8523 249.5818
v  -3.2535 334.8523 130.5962
v  -16.2265 334.8523 130.5962
v  -19.6847 -0.9792 113.5126
v  -3.2535 -0.9792 113.5126
v  -3.2536 324.4574 244.0809
v  -3.2536 -0.9792 265.6119
v  -25.9921 324.4574 244.0809
v  -19.6847 -0.9792 265.6119
v  -3.2535 324.4574 136.3228
v  -16.8634 324.4574 136.3228
v  -3.2535 -0.9792 121.8575
v  -19.6847 -0.9792 121.8575
# 16 vertices

vn -0.6127 0.5831 0.5334
vn -0.5690 -0.5654 0.5971
vn 0.5742 -0.5612 0.5961
vn 0.5806 0.5928 0.5581
vn 0.5796 0.5883 -0.5639
vn -0.5494 0.5953 -0.5863
vn -0.5777 -0.5639 -0.5901
vn 0.5752 -0.5661 -0.5906
vn 0.8980 -0.3195 -0.3024
vn 0.5803 -0.5915 -0.5598
vn -0.8753 -0.3153 -0.3667
vn -0.5752 -0.5957 -0.5605
vn 0.9002 -0.3136 0.3022
vn -0.9161 -0.3265 0.2327
vn 0.5793 -0.5869 0.5656
vn -0.5816 -0.5850 0.5653
# 16 vertex normals

vt 1.0000 1.0000 0.0000
vt 0.0000 1.0000 0.0000
vt 0.0000 0.0000 0.0000
vt 1.0000 0.0000 0.0000
vt 0.0520 0.9690 0.0000
vt 0.0520 0.0000 0.0000
vt 0.9480 0.9690 0.0000
vt 0.9480 -0.0000 0.0000
vt 1.0000 -0.0000 0.0000
vt 1.0000 0.1157 0.0000
vt 0.0000 0.1157 0.0000
vt 0.0000 0.8284 0.0000
vt 1.0000 0.8284 0.0000
vt -0.0003 0.1157 0.0000
vt -0.0003 0.8284 0.0000
vt 0.9480 1.0000 0.0000
vt 0.9480 0.0000 0.0000
vt 1.0003 0.1157 0.0000
vt -0.0000 0.1157 0.0000
vt -0.0000 0.8284 0.0000
vt 1.0003 0.8284 0.0000
vt 0.0520 1.0000 0.0000
vt 0.0520 -0.0000 0.0000
# 23 texture coords

o Box007
g Box007
usemtl wire_028089177
s 16
f 1/1/1 2/2/2 3/3/3 4/4/4 
s 32
f 1/2/1 4/3/4 5/4/5 6/1/6 
s 64
f 7/1/7 6/2/6 5/3/5 8/4/8 
s 2
f 9/5/9 4/2/4 3/3/3 10/6/10 
s 4
f 11/7/11 12/8/12 2/9/2 1/1/1 
s 8
f 13/10/13 9/11/9 11/12/11 14/13/14 
s 1
f 10/14/10 12/15/12 11/13/11 9/10/9 
s 8
f 2/1/2 12/16/12 10/17/10 3/4/3 
s 1
f 15/18/15 13/19/13 14/20/14 16/21/16 
s 8
f 8/3/8 15/6/15 16/22/16 7/2/7 
s 2
f 8/4/8 5/1/5 13/7/13 15/17/15 
f 4/2/4 9/5/9 13/7/13 5/1/5 
s 4
f 14/5/14 6/2/6 7/3/7 16/23/16 
f 14/5/14 11/7/11 1/1/1 6/2/6 
# 14 polygons

#
# object Box012
#

v  -0.3485 0.2055 122.4996
v  -0.3485 326.8459 136.9325
v  -0.3485 326.8458 243.5158
v  -0.3485 0.2055 271.9407
v  -9.9163 0.2055 122.4996
v  -9.9163 0.2055 271.9407
v  -18.7222 325.4566 245.3247
v  -9.9163 326.8458 136.9325
# 8 vertices

vn 0.5753 -0.5666 -0.5899
vn 0.5796 0.5879 -0.5644
vn 0.5819 0.6178 0.5288
vn 0.5733 -0.5558 0.6020
vn -0.5752 -0.5665 -0.5901
vn -0.5622 -0.5661 0.6029
vn -0.6288 0.5557 0.5438
vn -0.5399 0.5995 -0.5909
# 8 vertex normals

vt 1.0000 0.0000 0.0000
vt 1.0000 1.0000 0.0000
vt 0.0000 1.0000 0.0000
vt 0.0000 0.0000 0.0000
# 4 texture coords

o Box012
g Box012
usemtl wire_088144225
s 2
f 17/24/17 18/25/18 19/26/19 20/27/20 
s 4
f 21/27/21 22/24/22 23/25/23 24/26/24 
s 8
f 17/27/17 20/24/20 22/25/22 21/26/21 
s 16
f 20/27/20 19/24/19 23/25/23 22/26/22 
s 32
f 19/27/19 18/24/18 24/25/24 23/26/23 
s 64
f 18/27/18 17/24/17 21/25/21 24/26/24 
# 6 polygons

