# 3ds Max Wavefront OBJ Exporter v0.99 - (c)2007 guruware
# File Created: 11.11.2022 16:27:21

mtllib simon_bouton.mtl

#
# object e
#

v  -6.5605 7.6953 -4.2634
v  6.5605 7.6953 -5.4441
v  11.4507 7.6953 4.7243
v  -12.5200 7.6953 4.7243
v  -6.0472 11.1297 -3.6917
v  -11.2394 11.1297 3.7711
v  11.4507 11.1297 4.7243
v  6.5605 11.1297 -4.8724
# 8 vertices

vn -0.4629 -0.5332 -0.7081
vn 0.4074 -0.5362 -0.7393
vn 0.6906 -0.5593 0.4586
vn -0.7793 -0.4007 0.4818
vn -0.3775 0.7013 -0.6047
vn -0.6480 0.7062 0.2851
vn 0.6859 0.5567 0.4687
vn 0.4018 0.6513 -0.6437
# 8 vertex normals

vt 1.0000 0.0000 0.0000
vt 1.0000 1.0000 0.0000
vt 0.0000 1.0000 0.0000
vt 0.0000 0.0000 0.0000
# 4 texture coords

o e
g e
usemtl wire_255255255
s 2
f 1/1/1 2/2/2 3/3/3 4/4/4 
s 4
f 5/4/5 6/1/6 7/2/7 8/3/8 
s 8
f 1/4/1 4/1/4 6/2/6 5/3/5 
s 16
f 4/4/4 3/1/3 7/2/7 6/3/6 
s 32
f 3/4/3 2/1/2 8/2/8 7/3/7 
s 64
f 2/4/2 1/1/1 5/2/5 8/3/8 
# 6 polygons

