# 3ds Max Wavefront OBJ Exporter v0.99 - (c)2007 guruware
# File Created: 11.11.2022 14:38:02

mtllib simon_simon.mtl

#
# object Cylinder001
#

v  -193.9142 0.0000 213.6751
v  -227.5299 0.0000 210.6372
v  -244.3378 0.0000 184.5630
v  -225.5593 0.0000 155.8168
v  -193.9142 0.0000 153.4351
v  -173.9694 0.0000 184.5630
v  -193.9142 8.8000 154.7046
v  -175.2857 8.8000 184.5630
v  -225.5593 8.8000 154.7942
v  -243.0477 8.8000 184.5630
v  -227.5299 8.8000 212.3336
v  -193.9142 8.8000 210.9414
# 12 vertices

vn 0.3396 -0.5030 0.7948
vn -0.3979 -0.6798 0.6160
vn -0.8367 -0.5477 -0.0024
vn -0.3949 -0.6565 -0.6427
vn 0.3557 -0.5589 -0.7491
vn 0.8381 -0.5454 0.0123
vn 0.3791 0.6584 -0.6502
vn 0.7540 0.6564 0.0227
vn -0.3959 0.5724 -0.7181
vn -0.7472 0.6646 -0.0085
vn -0.3891 0.5419 0.7449
vn 0.3615 0.7151 0.5983
# 12 vertex normals

vt 0.3333 0.0000 -0.0000
vt 0.0833 0.0000 -1.0000
vt 0.2500 0.0000 -1.0000
vt 0.6667 0.0000 0.0000
vt 0.9167 0.0000 1.0000
vt 0.7500 0.0000 1.0000
vt 0.9167 1.0000 1.0000
vt 0.7500 1.0000 1.0000
vt -0.0833 0.0000 1.0000
vt 0.0833 0.0000 1.0000
vt 0.0833 1.0000 1.0000
vt -0.0833 1.0000 1.0000
vt 0.2500 0.0000 1.0000
vt 0.2500 1.0000 1.0000
vt 0.4167 0.0000 1.0000
vt 0.4167 1.0000 1.0000
vt 0.5833 0.0000 1.0000
vt 0.5833 1.0000 1.0000
vt 0.6667 1.0000 -0.0000
vt 0.2500 1.0000 -1.0000
vt 0.0833 1.0000 -1.0000
# 21 texture coords

o Cylinder001
g Cylinder001
usemtl wire_153228184
s 1
f 1/1/1 2/2/2 3/3/3 4/4/4 5/5/5 6/6/6 
s 8
f 6/6/6 5/5/5 7/7/7 8/8/8 
f 5/9/5 4/10/4 9/11/9 7/12/7 
f 4/10/4 3/13/3 10/14/10 9/11/9 
f 3/13/3 2/15/2 11/16/11 10/14/10 
f 2/15/2 1/17/1 12/18/12 11/16/11 
f 1/17/1 6/6/6 8/8/8 12/18/12 
s 1
f 12/18/12 8/8/8 7/7/7 9/19/9 10/20/10 11/21/11 
# 8 polygons

